<svg xmlns="http://www.w3.org/2000/svg" width="743.806" height="707" viewBox="0 0 743.806 707">
  <g id="Illustrations" transform="translate(-1045.097 -167)">
    <g id="Group_219" data-name="Group 219" transform="translate(-4823 1532)" opacity="0.06">
      <g id="Group_178" data-name="Group 178" transform="translate(5915 -1352)">
        <path id="Path_1" data-name="Path 1" d="M468.121-48.817c206.463-25.29,81.295,296.578,161.3,418.428S540.383,654.694,351.985,643.2,41,493.139,41,323.63,261.657-23.527,468.121-48.817Z" transform="translate(0 50.226)" fill="#001d49" opacity="0.5"/>
        <path id="NoPath_-_Copy_9_" data-name="NoPath - Copy (9)" d="M194.647,30C373.471,30,690,117.086,690,287.261S410.9,653.274,232.08,653.274,0,473.222,0,303.048,15.824,30,194.647,30Z" transform="translate(0 5)" fill="#001d49"/>
        <g id="Point" transform="translate(54 594)">
          <circle id="Ellipse_1" data-name="Ellipse 1" cx="5" cy="5" r="5" fill="#001d49"/>
          <circle id="Ellipse_1-2" data-name="Ellipse 1" cx="5" cy="5" r="5" transform="translate(30)" fill="#001d49"/>
          <circle id="Ellipse_1-3" data-name="Ellipse 1" cx="5" cy="5" r="5" transform="translate(60)" fill="#001d49"/>
          <circle id="Ellipse_1-4" data-name="Ellipse 1" cx="5" cy="5" r="5" transform="translate(90)" fill="#001d49"/>
          <circle id="Ellipse_1-5" data-name="Ellipse 1" cx="5" cy="5" r="5" transform="translate(0 30)" fill="#001d49"/>
          <circle id="Ellipse_1-6" data-name="Ellipse 1" cx="5" cy="5" r="5" transform="translate(30 30)" fill="#001d49"/>
          <circle id="Ellipse_1-7" data-name="Ellipse 1" cx="5" cy="5" r="5" transform="translate(60 30)" fill="#001d49"/>
          <circle id="Ellipse_1-8" data-name="Ellipse 1" cx="5" cy="5" r="5" transform="translate(90 30)" fill="#001d49"/>
          <circle id="Ellipse_1-9" data-name="Ellipse 1" cx="5" cy="5" r="5" transform="translate(0 60)" fill="#001d49"/>
          <circle id="Ellipse_1-10" data-name="Ellipse 1" cx="5" cy="5" r="5" transform="translate(30 60)" fill="#001d49"/>
          <circle id="Ellipse_1-11" data-name="Ellipse 1" cx="5" cy="5" r="5" transform="translate(60 60)" fill="#001d49"/>
          <circle id="Ellipse_1-12" data-name="Ellipse 1" cx="5" cy="5" r="5" transform="translate(90 60)" fill="#001d49"/>
          <circle id="Ellipse_1-13" data-name="Ellipse 1" cx="5" cy="5" r="5" transform="translate(0 90)" fill="#001d49"/>
          <circle id="Ellipse_1-14" data-name="Ellipse 1" cx="5" cy="5" r="5" transform="translate(30 90)" fill="#001d49"/>
          <circle id="Ellipse_1-15" data-name="Ellipse 1" cx="5" cy="5" r="5" transform="translate(60 90)" fill="#001d49"/>
          <circle id="Ellipse_1-16" data-name="Ellipse 1" cx="5" cy="5" r="5" transform="translate(90 90)" fill="#001d49"/>
        </g>
      </g>
    </g>
    <g id="undraw_building_websites_i78t_3_" data-name="undraw_building_websites_i78t (3)" transform="translate(1045.097 167)">
      <path id="Path_698" data-name="Path 698" d="M674.862,133.787c6.38,13.577-7.139,17.423-22.626,24.7s-27.076,15.23-33.456,1.653-11.556-40.525,10.352-50.82C651.8,98.671,668.483,120.21,674.862,133.787Z" transform="translate(-246.231 -106.46)" fill="#2f2e41"/>
      <circle id="Ellipse_78" data-name="Ellipse 78" cx="20.848" cy="20.848" r="20.848" transform="translate(376.187 12.332)" fill="#ffb8b8"/>
      <path id="Path_699" data-name="Path 699" d="M757.117,249.6c-.722-.942-1.443-1.867-2.173-2.767q-1.413-1.757-2.844-3.4c-10.806-12.469-22.3-20.321-34.954-21.161h-.017l-.187-.017-25.219,24.582-8.573,8.352.187.458,4.626,11.519h81.055a199.316,199.316,0,0,0-11.9-17.562Z" transform="translate(-256.797 -123.965)" fill="#2f2e41"/>
      <path id="Path_700" data-name="Path 700" d="M621.528,149.513h0l7.463-3.507-1.04-10.766,4.99,8.909,3.567-1.676-.606-6.28,2.911,5.2,26.5-12.454h0a22.07,22.07,0,0,0-29.36-10.588l-3.841,1.805a22.069,22.069,0,0,0-10.588,29.36Z" transform="translate(-247.164 -107.94)" fill="#2f2e41"/>
      <path id="Path_701" data-name="Path 701" d="M745.368,550.354H310.058a14.022,14.022,0,0,1-14.006-14.006V274.78a10.272,10.272,0,0,1,10.26-10.261H748.935a10.45,10.45,0,0,1,10.438,10.438V536.349A14.021,14.021,0,0,1,745.368,550.354Z" transform="translate(-198.278 -130.355)" fill="#f2f2f2"/>
      <path id="Path_702" data-name="Path 702" d="M326.133,540.384H734.282A13.581,13.581,0,0,0,747.863,526.8V304.794a13.581,13.581,0,0,0-13.581-13.581H326.133a13.581,13.581,0,0,0-13.581,13.581V526.8A13.581,13.581,0,0,0,326.133,540.384Z" transform="translate(-200.772 -134.39)" fill="#fff"/>
      <path id="Path_703" data-name="Path 703" d="M759.143,271.891H295.82v-7.13a14.068,14.068,0,0,1,14.057-14.048h435.21a14.068,14.068,0,0,1,14.057,14.048Z" transform="translate(-198.243 -128.268)" fill="#001d49"/>
      <circle id="Ellipse_79" data-name="Ellipse 79" cx="3.636" cy="3.636" r="3.636" transform="translate(119.487 129.419)" fill="#fff"/>
      <circle id="Ellipse_80" data-name="Ellipse 80" cx="3.636" cy="3.636" r="3.636" transform="translate(133.288 129.419)" fill="#fff"/>
      <circle id="Ellipse_81" data-name="Ellipse 81" cx="3.636" cy="3.636" r="3.636" transform="translate(147.089 129.419)" fill="#fff"/>
      <path id="Path_704" data-name="Path 704" d="M576.037,518.667h-36.5a8.073,8.073,0,0,1-8.064-8.064V474.1a8.073,8.073,0,0,1,8.064-8.064h36.5A8.073,8.073,0,0,1,584.1,474.1v36.5A8.073,8.073,0,0,1,576.037,518.667Zm-36.5-50.93a6.373,6.373,0,0,0-6.366,6.366v36.5a6.373,6.373,0,0,0,6.366,6.366h36.5A6.373,6.373,0,0,0,582.4,510.6V474.1a6.373,6.373,0,0,0-6.366-6.366Z" transform="translate(-233.867 -160.82)" fill="#ccc"/>
      <path id="Path_705" data-name="Path 705" d="M571.09,510.3H549.021a2.549,2.549,0,0,1-2.547-2.546V480.586a2.549,2.549,0,0,1,2.547-2.547h15.991a2.553,2.553,0,0,1,1.6.562l6.078,4.884a2.533,2.533,0,0,1,.952,1.985v22.278A2.549,2.549,0,0,1,571.09,510.3Zm-22.069-30.558a.85.85,0,0,0-.849.849v27.162a.85.85,0,0,0,.849.849H571.09a.85.85,0,0,0,.849-.849V485.471a.844.844,0,0,0-.317-.662l-6.079-4.884a.85.85,0,0,0-.531-.187Z" transform="translate(-236.135 -162.634)" fill="#ccc"/>
      <path id="Path_706" data-name="Path 706" d="M567.9,491.738H554.323a.849.849,0,0,1,0-1.7H567.9a.849.849,0,0,1,0,1.7Z" transform="translate(-237.193 -164.448)" fill="#ccc"/>
      <path id="Path_707" data-name="Path 707" d="M567.9,497.738H554.323a.849.849,0,0,1,0-1.7H567.9a.849.849,0,0,1,0,1.7Z" transform="translate(-237.193 -165.355)" fill="#ccc"/>
      <path id="Path_708" data-name="Path 708" d="M567.9,503.738H554.323a.849.849,0,0,1,0-1.7H567.9a.849.849,0,0,1,0,1.7Z" transform="translate(-237.193 -166.262)" fill="#ccc"/>
      <path id="Path_709" data-name="Path 709" d="M678.037,518.667h-36.5a8.073,8.073,0,0,1-8.064-8.064V474.1a8.073,8.073,0,0,1,8.064-8.064h36.5A8.073,8.073,0,0,1,686.1,474.1v36.5A8.073,8.073,0,0,1,678.037,518.667Zm-36.5-50.93a6.373,6.373,0,0,0-6.366,6.366v36.5a6.373,6.373,0,0,0,6.366,6.366h36.5A6.373,6.373,0,0,0,684.4,510.6V474.1a6.373,6.373,0,0,0-6.366-6.366Z" transform="translate(-249.287 -160.82)" fill="#ccc"/>
      <path id="Path_710" data-name="Path 710" d="M673.788,504.714H650.021a2.549,2.549,0,0,1-2.547-2.546V488.586a2.549,2.549,0,0,1,2.547-2.546h23.767a2.549,2.549,0,0,1,2.547,2.547v13.581A2.549,2.549,0,0,1,673.788,504.714Zm-23.767-16.977a.85.85,0,0,0-.849.849v13.581a.85.85,0,0,0,.849.849h23.767a.85.85,0,0,0,.849-.849V488.586a.85.85,0,0,0-.849-.849Z" transform="translate(-251.404 -163.843)" fill="#ccc"/>
      <path id="Path_711" data-name="Path 711" d="M661.9,497.919a2.55,2.55,0,0,1-1.349-.384l-12.682-7.926a.849.849,0,1,1,.9-1.44l12.682,7.926a.854.854,0,0,0,.9,0l12.681-7.926a.849.849,0,1,1,.9,1.44l-12.681,7.926a2.55,2.55,0,0,1-1.35.384Z" transform="translate(-251.403 -164.145)" fill="#ccc"/>
      <path id="Path_712" data-name="Path 712" d="M474.037,518.667h-36.5a8.073,8.073,0,0,1-8.064-8.064V474.1a8.073,8.073,0,0,1,8.064-8.064h36.5A8.073,8.073,0,0,1,482.1,474.1v36.5A8.073,8.073,0,0,1,474.037,518.667Zm-36.5-50.93a6.373,6.373,0,0,0-6.366,6.366v36.5a6.373,6.373,0,0,0,6.366,6.366h36.5A6.373,6.373,0,0,0,480.4,510.6V474.1a6.373,6.373,0,0,0-6.366-6.366Z" transform="translate(-218.448 -160.82)" fill="#ccc"/>
      <path id="Path_713" data-name="Path 713" d="M469.788,504.714H446.02a2.549,2.549,0,0,1-2.546-2.546V488.586a2.549,2.549,0,0,1,2.546-2.546h23.767a2.549,2.549,0,0,1,2.547,2.547v13.581A2.549,2.549,0,0,1,469.788,504.714ZM446.02,487.738a.85.85,0,0,0-.849.849v13.581a.85.85,0,0,0,.849.849h23.767a.85.85,0,0,0,.849-.849V488.586a.85.85,0,0,0-.849-.849Z" transform="translate(-220.564 -163.843)" fill="#ccc"/>
      <path id="Path_714" data-name="Path 714" d="M466.691,505.848H449.61a1.7,1.7,0,0,1-1.47-2.546l5.145-8.913a1.7,1.7,0,0,1,2.941,0l3.323,5.756,1.925-3.335a1.7,1.7,0,0,1,2.941,0l3.748,6.491a1.7,1.7,0,0,1-1.471,2.546Zm0-1.7h0l-3.748-6.491-2.66,4.608a.849.849,0,0,1-.735.424h0a.849.849,0,0,1-.735-.424l-4.058-7.029-5.146,8.913Z" transform="translate(-221.235 -164.977)" fill="#ccc"/>
      <circle id="Ellipse_82" data-name="Ellipse 82" cx="1.698" cy="1.698" r="1.698" transform="translate(244.98 325.592)" fill="#ccc"/>
      <path id="Path_715" data-name="Path 715" d="M766.09,641H755.683l-4.95-40.139h15.359Z" transform="translate(-113.491 -90.835)" fill="#ffb8b8"/>
      <path id="Path_716" data-name="Path 716" d="M946.84,764.092H913.285v-.424a13.06,13.06,0,0,1,13.061-13.06h20.495Z" transform="translate(-291.587 -203.839)" fill="#2f2e41"/>
      <path id="Path_717" data-name="Path 717" d="M816.09,641H805.683l-4.95-40.139h15.359Z" transform="translate(-121.05 -90.835)" fill="#ffb8b8"/>
      <path id="Path_718" data-name="Path 718" d="M996.844,764.092H963.289v-.424a13.06,13.06,0,0,1,13.061-13.06h20.495Z" transform="translate(-299.147 -203.839)" fill="#2f2e41"/>
      <path id="Path_719" data-name="Path 719" d="M985.846,706.634l-9.638-2.932a3.814,3.814,0,0,1-2.687-3.254l-8.985-85.16a.407.407,0,0,0-.406-.38.4.4,0,0,0-.433.347l-15.05,82.505a3.82,3.82,0,0,1-4.528,3.055L931.8,698.28a3.833,3.833,0,0,1-3.04-4l9.155-135.229,62.081-6.7L990.77,703.212a3.817,3.817,0,0,1-4.924,3.422Z" transform="translate(-293.925 -173.868)" fill="#2f2e41"/>
      <circle id="Ellipse_83" data-name="Ellipse 83" cx="20.848" cy="20.848" r="20.848" transform="translate(671.013 225.725)" fill="#ffb8b8"/>
      <path id="Path_720" data-name="Path 720" d="M939.433,541.26,952.894,456.5a32.134,32.134,0,0,1,40.748-25.8h0a32.037,32.037,0,0,1,22.58,36.722l-14.083,75.691Z" transform="translate(-295.54 -155.282)" fill="#004866"/>
      <path id="Path_721" data-name="Path 721" d="M1000.341,571.93a8.536,8.536,0,0,0,1.483-13l13.918-26.951-15.673,1.673-10.813,25.337a8.582,8.582,0,0,0,11.086,12.946Z" transform="translate(-302.729 -170.787)" fill="#ffb8b8"/>
      <path id="Path_722" data-name="Path 722" d="M1004.707,541.047a3.824,3.824,0,0,1-2.06-.977l-5.325-4.92a3.832,3.832,0,0,1-.927-4.29l10.642-25.226-1.51-49.843a12.305,12.305,0,0,1,24.384,3.326l2.581,31.332a39.363,39.363,0,0,1-7.587,26.65l-16.6,22.436a3.824,3.824,0,0,1-2.712,1.531A3.773,3.773,0,0,1,1004.707,541.047Z" transform="translate(-304.106 -157.661)" fill="#004866"/>
      <path id="Path_723" data-name="Path 723" d="M854.477,381.749a8.536,8.536,0,0,0,11.4,6.436l19.392,23.324,4.571-15.085-19.116-19.836a8.582,8.582,0,0,0-16.244,5.162Z" transform="translate(-282.674 -146.535)" fill="#ffb8b8"/>
      <path id="Path_724" data-name="Path 724" d="M872.3,394.095a3.824,3.824,0,0,1,1.7-1.516l6.607-2.985a3.832,3.832,0,0,1,4.312.819l19.08,19.635,46.487,18.043a12.3,12.3,0,1,1-12.57,21.158l-29.859-9.839a39.363,39.363,0,0,1-21.584-17.377L872.29,398a3.824,3.824,0,0,1-.352-3.094,3.778,3.778,0,0,1,.367-.813Z" transform="translate(-285.31 -149.212)" fill="#004866"/>
      <path id="Path_725" data-name="Path 725" d="M832.066,375.652l-.849,27.162L815.58,429.986l13.057-30.28Z" transform="translate(-123.295 -56.789)" opacity="0.1"/>
      <path id="Path_726" data-name="Path 726" d="M988.744,396.265a5.452,5.452,0,0,1-5.968-3.991,8.288,8.288,0,0,0-5.9-6.174c-3.824-.874-8.5.926-11.3-1.971a5.634,5.634,0,0,1-1.337-4.959c.516-2.816,2.53-4.943,4.722-6.644a28.913,28.913,0,0,1,16.014-5.985,57.449,57.449,0,0,1,9.015.448,39.9,39.9,0,0,1,9.221,1.685,21.71,21.71,0,0,1,13.583,15.856,25.065,25.065,0,0,1-5.141,20.482,26.908,26.908,0,0,1-10.322,7.859,4.027,4.027,0,0,1-3.061.155c-2.51-1-2.1-4.108-.956-6.182,1.225-2.219,3.11-4.368,2.125-7.07a5.349,5.349,0,0,0-2.654-2.857c-2.5-1.273-5.287-.972-7.969-.662Z" transform="translate(-299.271 -145.774)" fill="#2f2e41"/>
      <path id="Path_727" data-name="Path 727" d="M797.846,400.618H539.8A14.021,14.021,0,0,1,525.8,386.612V331.439A14.021,14.021,0,0,1,539.8,317.433H797.846a14.022,14.022,0,0,1,14.006,14.006v55.174A14.022,14.022,0,0,1,797.846,400.618Z" transform="translate(-233.009 -138.354)" fill="#fff"/>
      <path id="Path_728" data-name="Path 728" d="M797.77,400.967H539.727a14.446,14.446,0,0,1-14.43-14.43V331.363a14.446,14.446,0,0,1,14.43-14.43H797.77a14.446,14.446,0,0,1,14.43,14.43v55.174A14.446,14.446,0,0,1,797.77,400.967ZM539.727,318.631a12.747,12.747,0,0,0-12.732,12.732v55.174a12.747,12.747,0,0,0,12.732,12.732H797.77A12.747,12.747,0,0,0,810.5,386.537V331.363a12.747,12.747,0,0,0-12.732-12.732Z" transform="translate(-232.934 -138.279)" fill="#3f3d56"/>
      <path id="Path_729" data-name="Path 729" d="M772.033,389.3H576.8A14.021,14.021,0,0,1,562.8,375.3v-28.86A14.022,14.022,0,0,1,576.8,332.433h195.23a14.022,14.022,0,0,1,14.006,14.006V375.3A14.022,14.022,0,0,1,772.033,389.3Z" transform="translate(-238.603 -140.622)" fill="#f2f2f2"/>
      <circle id="Ellipse_84" data-name="Ellipse 84" cx="16.749" cy="16.749" r="16.749" transform="translate(363.464 199.629)" fill="#ff6584"/>
      <path id="Path_730" data-name="Path 730" d="M764.5,389.493l-23.642-19.828-23.234-19.486a3.4,3.4,0,0,0-4.374.008l-23.159,19.575-5.657,4.782-8.529-7.153-25.921-21.739a3.4,3.4,0,0,0-4.373.008L619.777,367.5l-26.243,22.183a.849.849,0,0,0,.55,1.5l53.8-.1,17.031-.033-.167.141,50.766-.1,48.44-.093a.849.849,0,0,0,.544-1.5Z" transform="translate(-243.204 -142.5)" fill="#3f3d56"/>
      <path id="Path_731" data-name="Path 731" d="M1026.963,767.631H863.989a.849.849,0,0,1,0-1.7h162.975a.849.849,0,1,1,0,1.7Z" transform="translate(-284.007 -206.156)" fill="#ccc"/>
      <path id="Path_732" data-name="Path 732" d="M769.705,226.858a9.525,9.525,0,0,0-6.154-4.329,8.743,8.743,0,0,0-1.409-.178L697.47,164.529a7.652,7.652,0,0,0-4.779-2.283,6.512,6.512,0,0,0-1.078-.034,7.686,7.686,0,0,0-5.059,13.14l24.76,21.586,40.659,35.438a10.11,10.11,0,0,0,.3,1.978,9.563,9.563,0,0,0,8.208,7.1,9.415,9.415,0,0,0,5.136-.849,9.681,9.681,0,0,0,3.293-2.521c.093-.11.178-.212.263-.331a9.586,9.586,0,0,0,.535-10.9Z" transform="translate(-256.967 -114.887)" fill="#ffb8b8"/>
      <path id="Path_733" data-name="Path 733" d="M651.486,287.324l-.6-24.5-.509-20.329-.348-14.226-.688-27.731A7.678,7.678,0,0,0,636,196.084a5.874,5.874,0,0,0-.637.815,7.586,7.586,0,0,0-1.324,5.135l1.511,40.464.756,20.329.967,25.932a10.224,10.224,0,0,0-.755,1.2,9.6,9.6,0,1,0,14.965-2.631Z" transform="translate(-249.367 -119.628)" fill="#ffb8b8"/>
      <path id="Path_734" data-name="Path 734" d="M709.857,213.1l-6-16.255-9.71-26.331a13.586,13.586,0,0,0-8.446-8.217c-.153-.051-.314-.1-.467-.144a13.568,13.568,0,0,0-11.238,1.545l-32.706,20.745a13.66,13.66,0,0,0-4.473,18.462,234.538,234.538,0,0,0,13.352,20.533c3.811,5.186,10.907,5.738,12.138,14.226h24.115l24.412-21.917Z" transform="translate(-249.507 -114.791)" fill="#ccc"/>
      <circle id="Ellipse_85" data-name="Ellipse 85" cx="19.669" cy="19.669" r="19.669" transform="translate(66.203 257.627)" fill="#a0616a"/>
      <path id="Path_735" data-name="Path 735" d="M330.239,416.853q.291.231.564.491a8.811,8.811,0,0,1-.354,13.143,8.258,8.258,0,0,1-.691.521l1.331,44.941a6.843,6.843,0,0,1-4.707,6.678l-.081.017-36.49,3.886a7.553,7.553,0,1,1-1.462-15.035l26.012-2.291,4.5-38.92a8.388,8.388,0,0,1-.825-.84,8.811,8.811,0,0,1,12.2-12.59Z" transform="translate(-196.082 -153.096)" fill="#a0616a"/>
      <path id="Path_736" data-name="Path 736" d="M139.328,642.43h9.818l4.67-37.869h-14.49Z" transform="translate(-21.063 -91.394)" fill="#a0616a"/>
      <path id="Path_737" data-name="Path 737" d="M317.242,751.858h19.335A12.321,12.321,0,0,1,348.9,764.179v.4H317.243Z" transform="translate(-201.481 -204.028)" fill="#2f2e41"/>
      <path id="Path_738" data-name="Path 738" d="M24.366,627.387,32.8,632.41l23.388-30.148-12.451-7.413Z" transform="translate(-3.684 -89.926)" fill="#a0616a"/>
      <path id="Path_739" data-name="Path 739" d="M203.468,734.889l16.613,9.891h0a12.321,12.321,0,0,1,4.283,16.891l-.2.344-27.2-16.2Z" transform="translate(-183.297 -201.463)" fill="#2f2e41"/>
      <path id="Path_740" data-name="Path 740" d="M315.937,707.718H304.943a3.6,3.6,0,0,1-3.583-3.223L290.277,600.313a1.2,1.2,0,0,0-2.289-.367l-19.994,44.274-35.4,57.722a3.621,3.621,0,0,1-4.523,1.414l-14.142-6.222a3.6,3.6,0,0,1-1.642-5.147L244.829,637.5l9.98-45.909c-3.139-19.909,10.317-49.509,10.454-49.806l.067-.145L302.4,527.152l.186.228c14.618,47.97,23.525,99.594,16.948,177.038a3.628,3.628,0,0,1-3.592,3.3Z" transform="translate(-185.537 -170.058)" fill="#2f2e41"/>
      <path id="Path_741" data-name="Path 741" d="M270.2,536.966l-.173-.363c-.083-.174-8.324-17.557-14.678-36.136a27.4,27.4,0,0,1,1.9-21.962,27.7,27.7,0,0,1,17.666-13.585h0a27.737,27.737,0,0,1,32.194,16.611c5.04,12.6,3.434,26.054,1.922,36.633l-.03.212-.193.092Z" transform="translate(-191.904 -160.534)" fill="#3f3d56"/>
      <path id="Path_742" data-name="Path 742" d="M304.562,417.1H273.33V403.485c6.855-2.723,13.563-5.039,17.618,0A13.614,13.614,0,0,1,304.561,417.1Z" transform="translate(-194.843 -150.914)" fill="#2f2e41"/>
      <path id="Path_743" data-name="Path 743" d="M267.037,401.185c-18.671,0-23.9,23.4-23.9,36.606,0,7.363,3.33,10,8.563,10.888l1.848-9.856,4.328,10.28c1.47.007,3.014-.021,4.615-.051l1.467-3.022L267.234,449c13.107.02,23.7,1.93,23.7-11.207C290.933,424.588,286.35,401.185,267.037,401.185Z" transform="translate(-190.279 -151.015)" fill="#2f2e41"/>
      <path id="Path_744" data-name="Path 744" d="M344.687,767.631H181.713a.849.849,0,1,1,0-1.7H344.687a.849.849,0,0,1,0,1.7Z" transform="translate(-180.864 -206.156)" fill="#ccc"/>
      <path id="Path_745" data-name="Path 745" d="M369.537,429.56h-36.5a8.073,8.073,0,0,1-8.064-8.064V385a8.073,8.073,0,0,1,8.064-8.064h36.5A8.073,8.073,0,0,1,377.6,385v36.5A8.073,8.073,0,0,1,369.537,429.56Z" transform="translate(-202.65 -147.349)" fill="#fff"/>
      <path id="Path_746" data-name="Path 746" d="M369.537,429.56h-36.5a8.073,8.073,0,0,1-8.064-8.064V385a8.073,8.073,0,0,1,8.064-8.064h36.5A8.073,8.073,0,0,1,377.6,385v36.5A8.073,8.073,0,0,1,369.537,429.56Zm-36.5-50.93A6.373,6.373,0,0,0,326.672,385v36.5a6.373,6.373,0,0,0,6.366,6.366h36.5A6.373,6.373,0,0,0,375.9,421.5V385a6.373,6.373,0,0,0-6.366-6.366Z" transform="translate(-202.65 -147.349)" fill="#3f3d56"/>
      <path id="Path_747" data-name="Path 747" d="M365.288,417.351H341.52a2.549,2.549,0,0,1-2.546-2.546V396.979a2.549,2.549,0,0,1,2.546-2.546h6.691a2.531,2.531,0,0,1,2.169,1.211l1.866,3.033h13.042a2.549,2.549,0,0,1,2.547,2.547V414.8a2.549,2.549,0,0,1-2.546,2.547Z" transform="translate(-204.766 -149.994)" fill="#44bed2"/>
      <path id="Path_748" data-name="Path 748" d="M356.667,431.227q.178.326.329.671a8.811,8.811,0,0,1-5.426,11.976,8.251,8.251,0,0,1-.839.212l-16.212,41.936a6.843,6.843,0,0,1-6.929,4.328l-.082-.015L292.37,479.756a7.553,7.553,0,1,1,4.487-14.424l24.862,7.983,19.248-34.124a8.382,8.382,0,0,1-.434-1.094,8.811,8.811,0,0,1,16.134-6.868Z" transform="translate(-196.918 -154.865)" fill="#a0616a"/>
    </g>
  </g>
</svg>
