<svg xmlns="http://www.w3.org/2000/svg" width="690" height="694" viewBox="0 0 690 694">
  <g id="Group_219" data-name="Group 219" transform="translate(-5915 1352)" opacity="0.06">
    <g id="Group_178" data-name="Group 178" transform="translate(5915 -1352)">
      <path id="Path_1" data-name="Path 1" d="M468.121-48.817c206.463-25.29,81.295,296.578,161.3,418.428S540.383,654.694,351.985,643.2,41,493.139,41,323.63,261.657-23.527,468.121-48.817Z" transform="translate(0 50.226)" fill="#001d49" opacity="0.5"/>
      <path id="NoPath_-_Copy_9_" data-name="NoPath - Copy (9)" d="M194.647,30C373.471,30,690,117.086,690,287.261S410.9,653.274,232.08,653.274,0,473.222,0,303.048,15.824,30,194.647,30Z" transform="translate(0 5)" fill="#001d49"/>
      <g id="Point" transform="translate(54 594)">
        <circle id="Ellipse_1" data-name="Ellipse 1" cx="5" cy="5" r="5" fill="#001d49"/>
        <circle id="Ellipse_1-2" data-name="Ellipse 1" cx="5" cy="5" r="5" transform="translate(30)" fill="#001d49"/>
        <circle id="Ellipse_1-3" data-name="Ellipse 1" cx="5" cy="5" r="5" transform="translate(60)" fill="#001d49"/>
        <circle id="Ellipse_1-4" data-name="Ellipse 1" cx="5" cy="5" r="5" transform="translate(90)" fill="#001d49"/>
        <circle id="Ellipse_1-5" data-name="Ellipse 1" cx="5" cy="5" r="5" transform="translate(0 30)" fill="#001d49"/>
        <circle id="Ellipse_1-6" data-name="Ellipse 1" cx="5" cy="5" r="5" transform="translate(30 30)" fill="#001d49"/>
        <circle id="Ellipse_1-7" data-name="Ellipse 1" cx="5" cy="5" r="5" transform="translate(60 30)" fill="#001d49"/>
        <circle id="Ellipse_1-8" data-name="Ellipse 1" cx="5" cy="5" r="5" transform="translate(90 30)" fill="#001d49"/>
        <circle id="Ellipse_1-9" data-name="Ellipse 1" cx="5" cy="5" r="5" transform="translate(0 60)" fill="#001d49"/>
        <circle id="Ellipse_1-10" data-name="Ellipse 1" cx="5" cy="5" r="5" transform="translate(30 60)" fill="#001d49"/>
        <circle id="Ellipse_1-11" data-name="Ellipse 1" cx="5" cy="5" r="5" transform="translate(60 60)" fill="#001d49"/>
        <circle id="Ellipse_1-12" data-name="Ellipse 1" cx="5" cy="5" r="5" transform="translate(90 60)" fill="#001d49"/>
        <circle id="Ellipse_1-13" data-name="Ellipse 1" cx="5" cy="5" r="5" transform="translate(0 90)" fill="#001d49"/>
        <circle id="Ellipse_1-14" data-name="Ellipse 1" cx="5" cy="5" r="5" transform="translate(30 90)" fill="#001d49"/>
        <circle id="Ellipse_1-15" data-name="Ellipse 1" cx="5" cy="5" r="5" transform="translate(60 90)" fill="#001d49"/>
        <circle id="Ellipse_1-16" data-name="Ellipse 1" cx="5" cy="5" r="5" transform="translate(90 90)" fill="#001d49"/>
      </g>
    </g>
  </g>
</svg>
